<?xml version="1.0" encoding="utf-8"?>
<!-- Generator: Adobe Illustrator 24.2.0, SVG Export Plug-In . SVG Version: 6.00 Build 0)  -->
<svg version="1.1" id="Layer_1" xmlns="http://www.w3.org/2000/svg" xmlns:xlink="http://www.w3.org/1999/xlink" x="0px" y="0px"
	 viewBox="0 0 1135 1120" enable-background="new 0 0 1135 1120" xml:space="preserve">
<g>
	<g>
		<path fill="#0F5BA6" d="M0.5,0h1135v1120H0.5V0z M25.51,25.01c-0.04,356.36-0.06,712.73,0.01,1069.09
			c168.99,0.32,337.99,0.23,506.98,0.53c110,0,220,0.24,330,0.25c9.97-0.06,19.95,0.23,29.91-0.49
			c38.72-2.54,76.66-15.23,109.33-36.13c29.26-18.67,54.36-43.83,72.88-73.18c19.76-31.24,31.95-67.3,34.71-104.19
			c0.91-9.94,0.61-19.93,0.66-29.89c0-161.34,0-322.67,0-484c-0.07-114,0.15-228.01-0.11-342.01
			C748.42,24.98,386.96,24.96,25.51,25.01z"/>
	</g>
	<path fill="#0F5BA6" d="M220.85,69.27c5.1-0.9,10.36-0.24,15.52-0.32c6.11,7.61,12.4,15.08,18.25,22.89
		c-5.96,0.03-11.92,0.05-17.87-0.03c-2.47-3.81-4.86-7.66-7.4-11.41c-3.09,3.51-5.25,7.69-8,11.45c-5.97,0.01-11.93,0.03-17.89-0.01
		C209.1,84.2,214.89,76.65,220.85,69.27z"/>
	<g>
		<path fill="#0F5BA6" d="M220.57,96.68c5.68-0.33,11.36-0.1,17.04-0.16c15.53,36.95,30.42,74.19,45.68,111.26
			c-6.14-0.18-12.28,0.16-18.41-0.16c-0.21-0.27-0.64-0.81-0.86-1.08c-3.71-9.64-7.44-19.27-11.09-28.93
			c-0.56-1.05-0.79-3.12-2.44-2.83c-14.3-0.08-28.6-0.12-42.9,0.03c-4.06,10.76-7.7,21.69-11.85,32.41
			c-5.54,1.24-11.63,0.17-17.38,0.5c0.25-1.04,0.53-2.07,0.83-3.09C192.94,168.63,206.9,132.71,220.57,96.68z M228.95,113.92
			c-3.92,16.13-10.92,31.27-16.36,46.9c11.3,0.1,22.6,0.07,33.9,0.02c-5.31-14.62-11.21-29.02-16.17-43.76
			C229.9,116.01,229.42,114.97,228.95,113.92z"/>
	</g>
	<path fill="#0F5BA6" d="M744.87,123.31c11.5-2.99,24.42-2.5,34.94,3.42c7.71,4.3,12.14,12.7,13.8,21.12
		c-3.89,1.19-7.79,2.36-11.79,3.11c-1.55-4.96-3.43-10.3-7.85-13.43c-5.61-3.98-12.84-5.02-19.55-4.32
		c-7.21,0.67-14.44,4-18.66,10.05c-5.69,7.96-6.94,18.29-5.95,27.81c0.78,7.91,4.14,16.07,10.85,20.73
		c9.56,6.51,22.45,6.99,32.86,2.24c2.87-1.41,6.18-2.55,8.22-5.12c0.25-4.54,0.4-9.14-0.21-13.66c-7.96,0.13-15.93,0.24-23.89-0.04
		c-0.02-3.94-0.05-7.89,0.1-11.83c12.22,0.16,24.45,0.17,36.68-0.01c0.71,10.81,0.25,21.68,0.24,32.5
		c-8.65,6.93-19.03,12-30.17,13.04c-11.85,1.23-24.41-1.61-33.86-9.07c-7.67-6.06-12.1-15.38-13.76-24.86
		c-2.14-12.76,0.15-26.47,7.32-37.35C728.93,130.42,736.57,125.46,744.87,123.31z"/>
	<path fill="#0F5BA6" d="M86.33,123.06c5.23,0.16,10.61-0.62,15.74,0.38c6.99,9.8,14.14,19.52,20.7,29.62
		c7.6-10.01,15.06-20.14,22.81-30.04c4.73,0,9.46-0.09,14.2,0.05c-9.42,13.58-19.8,26.48-29.41,39.92
		c10.52,15.03,21.33,29.84,31.95,44.79c-5.46-0.12-10.93,0.06-16.39-0.14c-7.76-11.31-15.8-22.43-23.63-33.69
		c-7.83,11.39-16.08,22.49-24.11,33.75c-5.23,0.05-10.47,0.04-15.7,0.05c10.07-14.12,20.62-27.9,30.92-41.86
		c0.67-1.01,1.99-2.27,0.8-3.46C105.02,149.24,95.43,136.32,86.33,123.06z"/>
	<path fill="#0F5BA6" d="M286.12,123.1c6.44-0.18,12.87-0.07,19.31-0.08c7.97,12.09,16.09,24.11,23.49,36.56
		c0.32,0.07,0.96,0.21,1.28,0.29c7.39-12.54,15.79-24.43,23.58-36.72c5.19-0.27,10.4-0.15,15.6-0.07
		c-10.86,15.42-21.45,31.03-32.29,46.47c-0.9,1.32-1.85,2.73-1.72,4.41c-0.09,11.26,0.06,22.53-0.05,33.79
		c-4.26-0.02-8.52-0.01-12.77,0.01c-0.42-11.25-0.04-22.52-0.18-33.78c0.06-3.09-2.71-5.16-4.24-7.58
		C307.51,151.93,296.48,137.75,286.12,123.1z"/>
	<g>
		<path fill="#0F5BA6" d="M409.72,123.1c10.59-0.19,21.18-0.03,31.78-0.09c8.03,0.01,16.57,0.82,23.29,5.66
			c10.37,7.15,14.92,20.09,15.42,32.24c0.73,12.97-1.76,27.12-10.85,36.96c-6.46,7.16-16.47,9.64-25.79,9.84
			c-11.27,0.05-22.54,0-33.8,0.02C409.74,179.52,409.84,151.31,409.72,123.1z M422.8,135.08c0.11,20.24,0.1,40.49,0,60.73
			c7.25,0.07,14.51,0.2,21.75-0.08c6.06-0.29,12.62-2.27,16.25-7.47c6-8.4,6.53-19.31,5.88-29.25c-0.46-7.7-3.44-15.65-9.79-20.37
			c-4.35-3.42-10.13-3.62-15.41-3.78C435.25,134.91,429.02,134.63,422.8,135.08z"/>
	</g>
	<path fill="#0F5BA6" d="M506.72,123.1c4.32-0.14,8.64-0.13,12.97-0.06c0.17,16.67-0.01,33.35,0.08,50.02
		c0.17,5.37,0.33,11.01,2.77,15.92c2.83,5.4,9.13,7.82,14.93,8.18c6.09,0.22,12.97-0.18,17.79-4.38c4.53-4.67,5.12-11.65,5.48-17.81
		c0.04-17.29,0.07-34.58-0.02-51.87c4.35-0.14,8.7-0.13,13.06-0.07c0.21,9.26,0.02,18.51,0.09,27.77c3.49-0.88,7.12-2.06,9.56-4.87
		c2.35-2.34,2.5-5.86,2.49-8.97c-1.74-0.07-3.46-0.15-5.19-0.21c0.06-4.55,0.04-9.1-0.01-13.65c4.32-0.14,8.64-0.13,12.96-0.06
		c-0.32,8.87,1.93,19.33-4.5,26.61c-3.72,4.71-9.64,6.65-15.34,7.58c-0.23,11.71,1.23,23.9-2.98,35.11
		c-3.71,9.45-13.45,15.33-23.27,16.42c-9.31,0.99-19.37,0.59-27.66-4.22c-5.31-3.04-9.18-8.26-10.88-14.11
		c-2.92-9.19-2.21-18.93-2.28-28.43C506.74,149.03,506.83,136.07,506.72,123.1z"/>
	<path fill="#0F5BA6" d="M618.42,123.05c4.31-0.08,8.63-0.08,12.94,0.01c11.11,16.58,22.18,33.19,33.29,49.77
		c2.84,4.08,5.31,8.43,8.52,12.24c-0.02-20.68-0.14-41.36,0.05-62.03c4.15-0.06,8.31-0.07,12.47,0.01
		c0.15,22.65,0.02,45.3,0.06,67.95c-0.07,5.58,0.21,11.18-0.2,16.76c-4.26-0.01-8.51-0.02-12.77-0.05
		c-12.47-18.54-24.82-37.17-37.26-55.73c-1.41-2.1-2.64-4.39-4.57-6.08c0.05,16.03,0.02,32.07,0.02,48.1
		c-0.09,4.6,0.3,9.22-0.29,13.81c-4.04-0.13-8.09-0.05-12.13-0.05C618.17,179.53,618.43,151.28,618.42,123.05z"/>
	<path fill="#0F5BA6" d="M533.13,212.63c4.48-0.18,8.96-0.19,13.44,0.01c0.1,4.48,0.09,8.96,0.01,13.43c-4.49,0.1-8.96,0.1-13.44,0
		C532.94,221.59,532.95,217.11,533.13,212.63z"/>
	<g>
		<path fill="#0F5BA6" d="M323.22,245.72c54.77-0.22,109.54,0.01,164.31-0.11c1.75-0.09,3.65,0.01,4.8,1.56
			c23.05,24.05,46.12,48.12,69.24,72.12c8.95-8.1,17.13-17.02,25.79-25.43c15.68-15.66,31.33-31.36,47.02-47.01
			c0.96-1.33,2.61-1.21,4.08-1.23c52.35,0.03,104.69,0.01,157.04,0.01c3.35,0.01,6.64,0.86,10,0.77
			c76.9-0.07,153.81,0.06,230.71-0.07c0.05,191.24,0,382.48,0.02,573.71c-0.16,21.24-8.45,42.24-22.63,58.02
			c-16.07,18.12-39.8,29.23-64.05,29.66c-82,0.05-164.01-0.04-246.01,0.04c-0.33-7.01-0.16-14.02-0.11-21.03
			c53.36-0.22,106.71-0.03,160.07-0.1c11.36-0.1,22.77,0.4,34.1-0.81c20.52-2,41.06-7.24,58.99-17.67
			c14.04-8.17,26.51-20.18,32.49-35.55c2.33-6.51,4.25-13.47,3.64-20.44c-113.06,0.28-226.13-0.08-339.19,0.18
			c-16.77,0.58-33.51,5.68-47.3,15.34c-15.63,10.78-27.32,27.5-31.05,46.22c-1.79,7.9-1.55,16.05-1.56,24.1
			c0.08,34.33,0.19,68.66,0.13,103c-0.15,6.89,0.35,13.81-0.29,20.69c-3.94-0.1-7.88-0.08-11.82,0c-0.31-66.96,0-133.93-0.16-200.9
			c-78.85-0.06-157.7-0.2-236.56-0.16c0.09-4.16,0.1-8.33-0.04-12.48c16.19-0.64,32.42-0.1,48.62-0.28
			c62.65,0.02,125.31-0.02,187.96,0.02c0.08-56.05,0.13-112.11-0.02-168.16c-8.54,7.85-16.45,16.36-24.75,24.46
			c-14.82,14.84-29.68,29.64-44.48,44.5c-1.1,1.48-3.02,1.44-4.67,1.45c-54.77-0.08-109.54,0.08-164.31-0.07
			c-0.24-50.36,0.01-100.73-0.13-151.09c0.14-1.76-0.4-3.9,1.21-5.13c26.05-25.41,52.54-50.37,78.5-75.86
			c-25.95-24.5-52.4-48.48-78.45-72.87c-1.68-1.19-1.12-3.36-1.26-5.1C323.23,348.59,322.99,297.16,323.22,245.72z M348.56,260.25
			c46,44.9,92.14,89.65,138.15,134.54c22.54,21.68,44.66,43.82,67.39,65.29c0.1-41.38-0.03-82.77,0.07-124.16
			c-0.09-1.52,0.19-3.36-1.19-4.4c-22.39-23.28-44.75-46.59-67.11-69.9c-0.86-0.98-2.05-1.56-3.37-1.38
			C437.86,260.26,393.21,260.26,348.56,260.25z M637.66,264.17c-22.45,22.56-45,45.02-67.49,67.54c-1.02,0.82-1.32,2.09-1.24,3.34
			c0.04,41.67,0,83.35,0.02,125.02c0.87-0.65,1.75-1.3,2.57-2.01c40.66-39.68,81.43-79.25,122.11-118.91
			c26.94-26.33,54.14-52.4,80.87-78.93c-43.66,0.08-87.32,0.01-130.97,0.03C640.88,259.99,639.43,262.68,637.66,264.17z
			 M337.81,270.73c-0.1,42.31-0.09,84.63,0,126.94c25.8,23.88,51.63,47.74,77.38,71.68c1.59,1.79,4.17,1.07,6.27,1.24
			c40.65-0.01,81.3-0.16,121.94,0.07c-6.08-6.43-12.6-12.43-18.9-18.65c-59.79-58.21-119.59-116.42-179.4-174.62
			C342.77,275.07,340.51,272.64,337.81,270.73z M752.65,302.14c-57.62,56.23-115.46,112.24-173.01,168.54
			c32.28-0.29,64.57-0.04,96.86-0.13c11.08-0.21,22.24,0.41,33.28-0.27c25.4-23.96,50.33-48.44,75.65-72.49
			c0.15-42.39,0.15-84.79,0-127.18C774.17,280.76,763.66,291.72,752.65,302.14z M415.14,486.62
			c-25.43,24.57-50.96,49.04-76.39,73.61c-1.21,0.89-0.97,2.42-1.02,3.73c0.07,40.4-0.01,80.8,0.04,121.2
			c11.38-10.21,21.97-21.3,33.09-31.81c57.46-56.08,115.15-111.92,172.53-168.08c-41.61,0.22-83.23,0.04-124.85,0.09
			C417.26,485.27,415.99,485.62,415.14,486.62z M580.36,485.4c2.63,3.57,6.17,6.31,9.24,9.5c45.26,44.07,90.54,88.13,135.81,132.2
			c20.05,19.34,39.78,39.04,60.03,58.17c0.05-41.35,0.29-82.72-0.12-124.04c-23.87-24.45-48.35-48.36-72.39-72.67
			c-1.54-1.47-3.03-3.59-5.46-3.2C665.1,485.4,622.73,485.32,580.36,485.4z M545.91,503.4c-56.95,55.4-113.85,110.84-170.8,166.23
			c-8.56,8.63-17.7,16.7-25.93,25.65c43.43,0.51,86.89,0.03,130.33,0.24c2.36-0.1,5.2,0.53,6.85-1.65
			c22.16-22.18,44.35-44.35,66.51-66.52c1.01-0.85,1.36-2.13,1.27-3.39c-0.04-42.69,0.03-85.38-0.03-128.08
			C551,497.95,548.6,500.86,545.91,503.4z M568.92,495.9c0.05,42.68,0.03,85.37,0.02,128.05c-0.32,1.59,0.89,2.69,1.91,3.71
			c14.14,13.52,28.26,27.07,42.35,40.64c9.59,8.88,18.63,18.36,28.44,26.98c5.59,0.54,11.24,0.05,16.86,0.21
			c38.48-0.13,76.98,0.26,115.45-0.19c-1.92-2.64-4.34-4.83-6.72-7.03c-65.19-63.5-130.43-126.94-195.62-190.43
			C570.78,497.09,569.84,496.5,568.92,495.9z"/>
	</g>
	<path fill="#0F5BA6" d="M249.67,246.98c12.03,2.35,23.6,9.24,29.87,20c6.66,11.12,6.95,24.89,4.37,37.28
		c-2.27,11.17-9.83,20.88-19.76,26.34c-13.5,7.39-29.52,9.4-44.62,7.11c-11.09-1.75-21.94-6.78-29.37-15.35
		c-8.14-9.39-11.9-22.1-11.4-34.41c0.13-9.46,3.2-19.04,9.44-26.25c5.42-6.4,13.03-10.86,21.14-12.85l0.75,0.42
		c1.41,4.77,2.38,9.65,3.36,14.53c-7.88,2.39-16.04,6.92-19.11,15.03c-4.21,11.22-2.23,25.24,6.49,33.84
		c6.32,6.38,15.5,8.65,24.13,9.72c11.02,0.83,22.67-0.01,32.56-5.35c16.02-8.69,19.41-33.69,6.18-46.26
		c-4.76-4.8-11.38-6.79-17.7-8.64C247.06,257.05,248.48,252.04,249.67,246.98z"/>
	<g>
		<path fill="#0F5BA6" d="M220.91,365.63c16.74-2.62,35.24,0.33,48.46,11.53c18.97,16.41,21.41,48.05,5.86,67.56
			c-8.7,11.3-22.79,17.41-36.75,18.61c-12.17,0.84-24.85-0.73-35.69-6.6c-11.26-6.04-19.74-17.03-22.65-29.49
			c-3.55-14.92-1.02-31.72,8.71-43.88C196.58,373.39,208.62,367.55,220.91,365.63z M220.9,381.64c-7.1,1.4-14.08,4.35-19.32,9.45
			c-11.88,11.46-12.38,32.06-1.72,44.48c5.75,7.5,15.29,10.57,24.32,11.62c8.77,0.86,17.88,0.84,26.25-2.26
			c9.99-3.55,18.16-12.24,20.5-22.66c1.58-7.01,1.17-14.56-1.58-21.23c-3.61-8.53-11.2-15.09-19.97-17.89
			C240.22,380.21,230.32,380.01,220.9,381.64z"/>
	</g>
	<ellipse fill="#0F5BA6" cx="298" cy="415" rx="11.33" ry="11.418"/>
	<path fill="#0F5BA6" d="M180.44,501.82c34.37-0.12,68.75-0.12,103.12,0c0.11,5.15,0.11,10.3,0.01,15.45
		c-15.62,0.28-31.24-0.07-46.85,0.16l-0.61,0.62c-0.26,11.64-0.02,23.3-0.1,34.95c0.11,4.94-0.31,9.9,0.29,14.83
		c15.75-0.13,31.51-0.14,47.26-0.01c0.11,5.12,0.11,10.24,0,15.36c-34.37,0.12-68.75,0.12-103.12,0c-0.11-5.12-0.12-10.24,0-15.36
		c13.76-0.13,27.52-0.11,41.27,0c0.59-5.25,0.16-10.55,0.28-15.82c-0.08-11.32,0.16-22.64-0.1-33.95l-0.61-0.63
		c-13.61-0.22-27.23,0.13-40.85-0.15C180.33,512.12,180.32,506.97,180.44,501.82z"/>
	<path fill="#0F5BA6" d="M180.44,640.82c34.37-0.12,68.75-0.12,103.12,0c0.11,5.12,0.11,10.24,0,15.36
		c-34.37,0.12-68.75,0.12-103.12,0C180.32,651.06,180.32,645.94,180.44,640.82z"/>
	<g>
		<path fill="#0F5BA6" d="M180.51,731.05c34.28-14.17,68.59-28.29,103.01-42.14c-0.13,5.84,0.8,11.91-0.44,17.61
			c-9.95,3.92-19.97,7.69-29.95,11.53c-0.2,13.63-0.2,27.28,0,40.91c10.16,3.66,20.34,7.26,30.45,11.05
			c0.06,5.42,0.16,10.85-0.08,16.27c-34.43-12.85-68.65-26.3-102.98-39.42C180.26,741.59,180.29,736.31,180.51,731.05z
			 M197.2,738.99c14.54,4.06,28.39,10.16,42.65,15.08c0.26-10.23,0.18-20.47,0.04-30.69C225.51,728.13,211.52,734.04,197.2,738.99z"
			/>
	</g>
	<path fill="#0F5BA6" d="M289.87,730.42c5.42,0.1,10.84,0.1,16.26,0c0,5.43-0.04,10.86,0.04,16.3c-5.45,0.02-10.89,0.03-16.34-0.01
		C289.91,741.28,289.87,735.85,289.87,730.42z"/>
	<g>
		<path fill="#0F5BA6" d="M189.57,833.04c9.27-10.93,23.97-15.44,37.89-15.94c15.29-0.82,31.57,2.37,43.53,12.44
			c8.67,7.9,12.64,19.94,12.6,31.48c-0.03,13.91,0.23,27.83-0.14,41.74c-15.27,0-30.56-0.16-45.83,0.07
			c0.08,3.67-0.04,7.34-0.08,11.01c-3.69,0.04-7.39,0.04-11.08,0c-0.05-3.67-0.16-7.34-0.08-11c-15.27-0.24-30.55-0.08-45.83-0.08
			c-0.33-13.92-0.24-27.86,0-41.78C180.66,851.08,182.84,840.65,189.57,833.04z M198.58,846.11c-3.56,5.21-3.79,11.75-4.05,17.84
			c-0.11,7.75-0.06,15.5-0.01,23.25c10.61,0.1,21.24,0.16,31.86-0.03c0.14-9.28-0.3-18.58,0.23-27.85c3.59,0.05,7.19,0.05,10.78,0
			c0.53,9.27,0.09,18.56,0.23,27.84c10.65,0.21,21.31,0.14,31.96,0.04c-0.29-11.81,1.24-23.9-1.66-35.47
			c-1.93-8-9.02-13.34-16.49-15.84c-9.56-3.27-19.93-3.49-29.88-2.42C212.72,834.54,203.58,838.43,198.58,846.11z"/>
	</g>
</g>
<g>
	<g>
		<path fill="#FFFFFF" d="M25.51,25.01c361.45-0.05,722.91-0.03,1084.37-0.02c0.26,114,0.04,228.01,0.11,342.01
			c0,161.33,0,322.66,0,484c-0.05,9.96,0.25,19.95-0.66,29.89c-2.76,36.89-14.95,72.95-34.71,104.19
			c-18.52,29.35-43.62,54.51-72.88,73.18c-32.67,20.9-70.61,33.59-109.33,36.13c-9.96,0.72-19.94,0.43-29.91,0.49
			c-110-0.01-220-0.25-330-0.25c-168.99-0.3-337.99-0.21-506.98-0.53C25.45,737.74,25.47,381.37,25.51,25.01z M220.85,69.27
			c-5.96,7.38-11.75,14.93-17.39,22.57c5.96,0.04,11.92,0.02,17.89,0.01c2.75-3.76,4.91-7.94,8-11.45c2.54,3.75,4.93,7.6,7.4,11.41
			c5.95,0.08,11.91,0.06,17.87,0.03c-5.85-7.81-12.14-15.28-18.25-22.89C231.21,69.03,225.95,68.37,220.85,69.27z M220.57,96.68
			c-13.67,36.03-27.63,71.95-41.38,107.95c-0.3,1.02-0.58,2.05-0.83,3.09c5.75-0.33,11.84,0.74,17.38-0.5
			c4.15-10.72,7.79-21.65,11.85-32.41c14.3-0.15,28.6-0.11,42.9-0.03c1.65-0.29,1.88,1.78,2.44,2.83
			c3.65,9.66,7.38,19.29,11.09,28.93c0.22,0.27,0.65,0.81,0.86,1.08c6.13,0.32,12.27-0.02,18.41,0.16
			c-15.26-37.07-30.15-74.31-45.68-111.26C231.93,96.58,226.25,96.35,220.57,96.68z M744.87,123.31
			c-8.3,2.15-15.94,7.11-20.68,14.33c-7.17,10.88-9.46,24.59-7.32,37.35c1.66,9.48,6.09,18.8,13.76,24.86
			c9.45,7.46,22.01,10.3,33.86,9.07c11.14-1.04,21.52-6.11,30.17-13.04c0.01-10.82,0.47-21.69-0.24-32.5
			c-12.23,0.18-24.46,0.17-36.68,0.01c-0.15,3.94-0.12,7.89-0.1,11.83c7.96,0.28,15.93,0.17,23.89,0.04
			c0.61,4.52,0.46,9.12,0.21,13.66c-2.04,2.57-5.35,3.71-8.22,5.12c-10.41,4.75-23.3,4.27-32.86-2.24
			c-6.71-4.66-10.07-12.82-10.85-20.73c-0.99-9.52,0.26-19.85,5.95-27.81c4.22-6.05,11.45-9.38,18.66-10.05
			c6.71-0.7,13.94,0.34,19.55,4.32c4.42,3.13,6.3,8.47,7.85,13.43c4-0.75,7.9-1.92,11.79-3.11c-1.66-8.42-6.09-16.82-13.8-21.12
			C769.29,120.81,756.37,120.32,744.87,123.31z M86.33,123.06c9.1,13.26,18.69,26.18,27.88,39.37c1.19,1.19-0.13,2.45-0.8,3.46
			c-10.3,13.96-20.85,27.74-30.92,41.86c5.23-0.01,10.47,0,15.7-0.05c8.03-11.26,16.28-22.36,24.11-33.75
			c7.83,11.26,15.87,22.38,23.63,33.69c5.46,0.2,10.93,0.02,16.39,0.14c-10.62-14.95-21.43-29.76-31.95-44.79
			c9.61-13.44,19.99-26.34,29.41-39.92c-4.74-0.14-9.47-0.05-14.2-0.05c-7.75,9.9-15.21,20.03-22.81,30.04
			c-6.56-10.1-13.71-19.82-20.7-29.62C96.94,122.44,91.56,123.22,86.33,123.06z M286.12,123.1c10.36,14.65,21.39,28.83,32.01,43.3
			c1.53,2.42,4.3,4.49,4.24,7.58c0.14,11.26-0.24,22.53,0.18,33.78c4.25-0.02,8.51-0.03,12.77-0.01
			c0.11-11.26-0.04-22.53,0.05-33.79c-0.13-1.68,0.82-3.09,1.72-4.41c10.84-15.44,21.43-31.05,32.29-46.47
			c-5.2-0.08-10.41-0.2-15.6,0.07c-7.79,12.29-16.19,24.18-23.58,36.72c-0.32-0.08-0.96-0.22-1.28-0.29
			c-7.4-12.45-15.52-24.47-23.49-36.56C298.99,123.03,292.56,122.92,286.12,123.1z M409.72,123.1c0.12,28.21,0.02,56.42,0.05,84.63
			c11.26-0.02,22.53,0.03,33.8-0.02c9.32-0.2,19.33-2.68,25.79-9.84c9.09-9.84,11.58-23.99,10.85-36.96
			c-0.5-12.15-5.05-25.09-15.42-32.24c-6.72-4.84-15.26-5.65-23.29-5.66C430.9,123.07,420.31,122.91,409.72,123.1z M506.72,123.1
			c0.11,12.97,0.02,25.93,0.05,38.9c0.07,9.5-0.64,19.24,2.28,28.43c1.7,5.85,5.57,11.07,10.88,14.11
			c8.29,4.81,18.35,5.21,27.66,4.22c9.82-1.09,19.56-6.97,23.27-16.42c4.21-11.21,2.75-23.4,2.98-35.11
			c5.7-0.93,11.62-2.87,15.34-7.58c6.43-7.28,4.18-17.74,4.5-26.61c-4.32-0.07-8.64-0.08-12.96,0.06c0.05,4.55,0.07,9.1,0.01,13.65
			c1.73,0.06,3.45,0.14,5.19,0.21c0.01,3.11-0.14,6.63-2.49,8.97c-2.44,2.81-6.07,3.99-9.56,4.87c-0.07-9.26,0.12-18.51-0.09-27.77
			c-4.36-0.06-8.71-0.07-13.06,0.07c0.09,17.29,0.06,34.58,0.02,51.87c-0.36,6.16-0.95,13.14-5.48,17.81
			c-4.82,4.2-11.7,4.6-17.79,4.38c-5.8-0.36-12.1-2.78-14.93-8.18c-2.44-4.91-2.6-10.55-2.77-15.92
			c-0.09-16.67,0.09-33.35-0.08-50.02C515.36,122.97,511.04,122.96,506.72,123.1z M618.42,123.05c0.01,28.23-0.25,56.48,0.13,84.71
			c4.04,0,8.09-0.08,12.13,0.05c0.59-4.59,0.2-9.21,0.29-13.81c0-16.03,0.03-32.07-0.02-48.1c1.93,1.69,3.16,3.98,4.57,6.08
			c12.44,18.56,24.79,37.19,37.26,55.73c4.26,0.03,8.51,0.04,12.77,0.05c0.41-5.58,0.13-11.18,0.2-16.76
			c-0.04-22.65,0.09-45.3-0.06-67.95c-4.16-0.08-8.32-0.07-12.47-0.01c-0.19,20.67-0.07,41.35-0.05,62.03
			c-3.21-3.81-5.68-8.16-8.52-12.24c-11.11-16.58-22.18-33.19-33.29-49.77C627.05,122.97,622.73,122.97,618.42,123.05z
			 M533.13,212.63c-0.18,4.48-0.19,8.96,0.01,13.44c4.48,0.1,8.95,0.1,13.44,0c0.08-4.47,0.09-8.95-0.01-13.43
			C542.09,212.44,537.61,212.45,533.13,212.63z M323.22,245.72c-0.23,51.44,0.01,102.87-0.12,154.3c0.14,1.74-0.42,3.91,1.26,5.1
			c26.05,24.39,52.5,48.37,78.45,72.87c-25.96,25.49-52.45,50.45-78.5,75.86c-1.61,1.23-1.07,3.37-1.21,5.13
			c0.14,50.36-0.11,100.73,0.13,151.09c54.77,0.15,109.54-0.01,164.31,0.07c1.65-0.01,3.57,0.03,4.67-1.45
			c14.8-14.86,29.66-29.66,44.48-44.5c8.3-8.1,16.21-16.61,24.75-24.46c0.15,56.05,0.1,112.11,0.02,168.16
			c-62.65-0.04-125.31,0-187.96-0.02c-16.2,0.18-32.43-0.36-48.62,0.28c0.14,4.15,0.13,8.32,0.04,12.48
			c78.86-0.04,157.71,0.1,236.56,0.16c0.16,66.97-0.15,133.94,0.16,200.9c3.94-0.08,7.88-0.1,11.82,0
			c0.64-6.88,0.14-13.8,0.29-20.69c0.06-34.34-0.05-68.67-0.13-103c0.01-8.05-0.23-16.2,1.56-24.1
			c3.73-18.72,15.42-35.44,31.05-46.22c13.79-9.66,30.53-14.76,47.3-15.34c113.06-0.26,226.13,0.1,339.19-0.18
			c0.61,6.97-1.31,13.93-3.64,20.44c-5.98,15.37-18.45,27.38-32.49,35.55c-17.93,10.43-38.47,15.67-58.99,17.67
			c-11.33,1.21-22.74,0.71-34.1,0.81c-53.36,0.07-106.71-0.12-160.07,0.1c-0.05,7.01-0.22,14.02,0.11,21.03
			c82-0.08,164.01,0.01,246.01-0.04c24.25-0.43,47.98-11.54,64.05-29.66c14.18-15.78,22.47-36.78,22.63-58.02
			c-0.02-191.23,0.03-382.47-0.02-573.71c-76.9,0.13-153.81,0-230.71,0.07c-3.36,0.09-6.65-0.76-10-0.77
			c-52.35,0-104.69,0.02-157.04-0.01c-1.47,0.02-3.12-0.1-4.08,1.23c-15.69,15.65-31.34,31.35-47.02,47.01
			c-8.66,8.41-16.84,17.33-25.79,25.43c-23.12-24-46.19-48.07-69.24-72.12c-1.15-1.55-3.05-1.65-4.8-1.56
			C432.76,245.73,377.99,245.5,323.22,245.72z M249.67,246.98c-1.19,5.06-2.61,10.07-3.67,15.16c6.32,1.85,12.94,3.84,17.7,8.64
			c13.23,12.57,9.84,37.57-6.18,46.26c-9.89,5.34-21.54,6.18-32.56,5.35c-8.63-1.07-17.81-3.34-24.13-9.72
			c-8.72-8.6-10.7-22.62-6.49-33.84c3.07-8.11,11.23-12.64,19.11-15.03c-0.98-4.88-1.95-9.76-3.36-14.53l-0.75-0.42
			c-8.11,1.99-15.72,6.45-21.14,12.85c-6.24,7.21-9.31,16.79-9.44,26.25c-0.5,12.31,3.26,25.02,11.4,34.41
			c7.43,8.57,18.28,13.6,29.37,15.35c15.1,2.29,31.12,0.28,44.62-7.11c9.93-5.46,17.49-15.17,19.76-26.34
			c2.58-12.39,2.29-26.16-4.37-37.28C273.27,256.22,261.7,249.33,249.67,246.98z M220.91,365.63c-12.29,1.92-24.33,7.76-32.06,17.73
			c-9.73,12.16-12.26,28.96-8.71,43.88c2.91,12.46,11.39,23.45,22.65,29.49c10.84,5.87,23.52,7.44,35.69,6.6
			c13.96-1.2,28.05-7.31,36.75-18.61c15.55-19.51,13.11-51.15-5.86-67.56C256.15,365.96,237.65,363.01,220.91,365.63z
			 M289.81,407.11c0.1,5.26,0.1,10.52,0,15.78c5.45,0.38,10.93,0.38,16.38,0c-0.1-5.26-0.1-10.52,0-15.78
			C300.74,406.73,295.26,406.73,289.81,407.11z M180.44,501.82c-0.12,5.15-0.11,10.3-0.01,15.45c13.62,0.28,27.24-0.07,40.85,0.15
			l0.61,0.63c0.26,11.31,0.02,22.63,0.1,33.95c-0.12,5.27,0.31,10.57-0.28,15.82c-13.75-0.11-27.51-0.13-41.27,0
			c-0.12,5.12-0.11,10.24,0,15.36c34.37,0.12,68.75,0.12,103.12,0c0.11-5.12,0.11-10.24,0-15.36c-15.75-0.13-31.51-0.12-47.26,0.01
			c-0.6-4.93-0.18-9.89-0.29-14.83c0.08-11.65-0.16-23.31,0.1-34.95l0.61-0.62c15.61-0.23,31.23,0.12,46.85-0.16
			c0.1-5.15,0.1-10.3-0.01-15.45C249.19,501.7,214.81,501.7,180.44,501.82z M180.44,640.82c-0.12,5.12-0.12,10.24,0,15.36
			c34.37,0.12,68.75,0.12,103.12,0c0.11-5.12,0.11-10.24,0-15.36C249.19,640.7,214.81,640.7,180.44,640.82z M180.51,731.05
			c-0.22,5.26-0.25,10.54,0.01,15.81c34.33,13.12,68.55,26.57,102.98,39.42c0.24-5.42,0.14-10.85,0.08-16.27
			c-10.11-3.79-20.29-7.39-30.45-11.05c-0.2-13.63-0.2-27.28,0-40.91c9.98-3.84,20-7.61,29.95-11.53c1.24-5.7,0.31-11.77,0.44-17.61
			C249.1,702.76,214.79,716.88,180.51,731.05z M289.87,730.42c0,5.43,0.04,10.86-0.04,16.29c5.45,0.04,10.89,0.03,16.34,0.01
			c-0.08-5.44-0.04-10.87-0.04-16.3C300.71,730.52,295.29,730.52,289.87,730.42z M189.57,833.04c-6.73,7.61-8.91,18.04-9.02,27.94
			c-0.24,13.92-0.33,27.86,0,41.78c15.28,0,30.56-0.16,45.83,0.08c-0.08,3.66,0.03,7.33,0.08,11c3.69,0.04,7.39,0.04,11.08,0
			c0.04-3.67,0.16-7.34,0.08-11.01c15.27-0.23,30.56-0.07,45.83-0.07c0.37-13.91,0.11-27.83,0.14-41.74
			c0.04-11.54-3.93-23.58-12.6-31.48c-11.96-10.07-28.24-13.26-43.53-12.44C213.54,817.6,198.84,822.11,189.57,833.04z"/>
	</g>
	<path fill="#FFFFFF" d="M228.95,113.92c0.47,1.05,0.95,2.09,1.37,3.16c4.96,14.74,10.86,29.14,16.17,43.76
		c-11.3,0.05-22.6,0.08-33.9-0.02C218.03,145.19,225.03,130.05,228.95,113.92z"/>
	<path fill="#FFFFFF" d="M422.8,135.08c6.22-0.45,12.45-0.17,18.68-0.22c5.28,0.16,11.06,0.36,15.41,3.78
		c6.35,4.72,9.33,12.67,9.79,20.37c0.65,9.94,0.12,20.85-5.88,29.25c-3.63,5.2-10.19,7.18-16.25,7.47
		c-7.24,0.28-14.5,0.15-21.75,0.08C422.9,175.57,422.91,155.32,422.8,135.08z"/>
	<path fill="#FFFFFF" d="M348.56,260.25c44.65,0.01,89.3,0.01,133.94-0.01c1.32-0.18,2.51,0.4,3.37,1.38
		c22.36,23.31,44.72,46.62,67.11,69.9c1.38,1.04,1.1,2.88,1.19,4.4c-0.1,41.39,0.03,82.78-0.07,124.16
		c-22.73-21.47-44.85-43.61-67.39-65.29C440.7,349.9,394.56,305.15,348.56,260.25z"/>
	<path fill="#FFFFFF" d="M637.66,264.17c1.77-1.49,3.22-4.18,5.87-3.92c43.65-0.02,87.31,0.05,130.97-0.03
		c-26.73,26.53-53.93,52.6-80.87,78.93c-40.68,39.66-81.45,79.23-122.11,118.91c-0.82,0.71-1.7,1.36-2.57,2.01
		c-0.02-41.67,0.02-83.35-0.02-125.02c-0.08-1.25,0.22-2.52,1.24-3.34C592.66,309.19,615.21,286.73,637.66,264.17z"/>
	<path fill="#FFFFFF" d="M337.81,270.73c2.7,1.91,4.96,4.34,7.29,6.66c59.81,58.2,119.61,116.41,179.4,174.62
		c6.3,6.22,12.82,12.22,18.9,18.65c-40.64-0.23-81.29-0.08-121.94-0.07c-2.1-0.17-4.68,0.55-6.27-1.24
		c-25.75-23.94-51.58-47.8-77.38-71.68C337.72,355.36,337.71,313.04,337.81,270.73z"/>
	<path fill="#FFFFFF" d="M752.65,302.14c11.01-10.42,21.52-21.38,32.78-31.53c0.15,42.39,0.15,84.79,0,127.18
		c-25.32,24.05-50.25,48.53-75.65,72.49c-11.04,0.68-22.2,0.06-33.28,0.27c-32.29,0.09-64.58-0.16-96.86,0.13
		C637.19,414.38,695.03,358.37,752.65,302.14z"/>
	<path fill="#FFFFFF" d="M220.9,381.64c9.42-1.63,19.32-1.43,28.48,1.51c8.77,2.8,16.36,9.36,19.97,17.89
		c2.75,6.67,3.16,14.22,1.58,21.23c-2.34,10.42-10.51,19.11-20.5,22.66c-8.37,3.1-17.48,3.12-26.25,2.26
		c-9.03-1.05-18.57-4.12-24.32-11.62c-10.66-12.42-10.16-33.02,1.72-44.48C206.82,385.99,213.8,383.04,220.9,381.64z"/>
	<path fill="#FFFFFF" d="M415.14,486.62c0.85-1,2.12-1.35,3.4-1.26c41.62-0.05,83.24,0.13,124.85-0.09
		c-57.38,56.16-115.07,112-172.53,168.08c-11.12,10.51-21.71,21.6-33.09,31.81c-0.05-40.4,0.03-80.8-0.04-121.2
		c0.05-1.31-0.19-2.84,1.02-3.73C364.18,535.66,389.71,511.19,415.14,486.62z"/>
	<path fill="#FFFFFF" d="M580.36,485.4c42.37-0.08,84.74,0,127.11-0.04c2.43-0.39,3.92,1.73,5.46,3.2
		c24.04,24.31,48.52,48.22,72.39,72.67c0.41,41.32,0.17,82.69,0.12,124.04c-20.25-19.13-39.98-38.83-60.03-58.17
		c-45.27-44.07-90.55-88.13-135.81-132.2C586.53,491.71,582.99,488.97,580.36,485.4z"/>
	<path fill="#FFFFFF" d="M545.91,503.4c2.69-2.54,5.09-5.45,8.2-7.52c0.06,42.7-0.01,85.39,0.03,128.08
		c0.09,1.26-0.26,2.54-1.27,3.39c-22.16,22.17-44.35,44.34-66.51,66.52c-1.65,2.18-4.49,1.55-6.85,1.65
		c-43.44-0.21-86.9,0.27-130.33-0.24c8.23-8.95,17.37-17.02,25.93-25.65C432.06,614.24,488.96,558.8,545.91,503.4z"/>
	<path fill="#FFFFFF" d="M568.92,495.9c0.92,0.6,1.86,1.19,2.69,1.94c65.19,63.49,130.43,126.93,195.62,190.43
		c2.38,2.2,4.8,4.39,6.72,7.03c-38.47,0.45-76.97,0.06-115.45,0.19c-5.62-0.16-11.27,0.33-16.86-0.21
		c-9.81-8.62-18.85-18.1-28.44-26.98c-14.09-13.57-28.21-27.12-42.35-40.64c-1.02-1.02-2.23-2.12-1.91-3.71
		C568.95,581.27,568.97,538.58,568.92,495.9z"/>
	<path fill="#FFFFFF" d="M197.2,738.99c14.32-4.95,28.31-10.86,42.69-15.61c0.14,10.22,0.22,20.46-0.04,30.69
		C225.59,749.15,211.74,743.05,197.2,738.99z"/>
	<path fill="#FFFFFF" d="M198.58,846.11c5-7.68,14.14-11.57,22.97-12.64c9.95-1.07,20.32-0.85,29.88,2.42
		c7.47,2.5,14.56,7.84,16.49,15.84c2.9,11.57,1.37,23.66,1.66,35.47c-10.65,0.1-21.31,0.17-31.96-0.04
		c-0.14-9.28,0.3-18.57-0.23-27.84c-3.59,0.05-7.19,0.05-10.78,0c-0.53,9.27-0.09,18.57-0.23,27.85
		c-10.62,0.19-21.25,0.13-31.86,0.03c-0.05-7.75-0.1-15.5,0.01-23.25C194.79,857.86,195.02,851.32,198.58,846.11z"/>
</g>
</svg>
